<?xml version="1.0" encoding="utf-8"?>
<!-- Generator: Adobe Illustrator 16.0.3, SVG Export Plug-In . SVG Version: 6.00 Build 0)  -->
<!DOCTYPE svg PUBLIC "-//W3C//DTD SVG 1.1//EN" "http://www.w3.org/Graphics/SVG/1.1/DTD/svg11.dtd">
<svg version="1.1" id="Layer_1" xmlns="http://www.w3.org/2000/svg" xmlns:xlink="http://www.w3.org/1999/xlink" x="0px" y="0px"
	 width="512px" height="512px" viewBox="0 0 512 512" enable-background="new 0 0 512 512" xml:space="preserve">
<g>
	<path fill="#A52E17" d="M339.631,51H106.543C92.459,51,81,62.438,81,76.496V267h27V78h218v74h68.727H403v282H211v27h193.457
		C418.541,461,430,449.559,430,435.496v-305.11L339.631,51z"/>
	<g>
		<rect x="224" y="279" fill="#D24B26" width="137" height="26"/>
		<rect x="287" y="348" fill="#D24B26" width="74" height="26"/>
		<polygon fill="#D24B26" points="323.754,209 188.246,209 151,209 151,235 188.246,235 323.754,235 361,235 361,209 		"/>
		<polygon fill="#D24B26" points="258.809,166 281,166 281,140 258.809,140 253.191,140 151,140 151,166 253.191,166 		"/>
	</g>
	<path fill="#671506" d="M109.095,291c-49.706,0-90,40.294-90,89.999c0,49.707,40.294,90.001,90,90.001
		c49.705,0,90-40.294,90-90.001C199.095,331.294,158.8,291,109.095,291z M160.618,414.234l-18.385,18.385L109,399.385L75.765,432.62
		L57.38,414.235L90.615,381l-33.234-33.234l18.385-18.385L109,362.615l33.233-33.233l18.385,18.385L127.385,381L160.618,414.234z"/>
</g>
</svg>
